<svg width="978" height="476" viewBox="0 0 978 476" fill="none" xmlns="http://www.w3.org/2000/svg">
<path d="M11.6824 423.405V456.448H3.63362V423.405H11.6824ZM33.5189 429.901C36.594 429.901 39.0416 430.905 40.8616 432.913C42.713 434.89 43.6387 437.62 43.6387 441.103V456.448H35.637V442.186C35.637 440.428 35.182 439.063 34.272 438.091C33.362 437.118 32.1382 436.631 30.6006 436.631C29.063 436.631 27.8392 437.118 26.9292 438.091C26.0192 439.063 25.5642 440.428 25.5642 442.186V456.448H17.5153V430.183H25.5642V433.666C26.38 432.505 27.4783 431.595 28.859 430.936C30.2397 430.246 31.793 429.901 33.5189 429.901ZM65.2354 429.901C68.3106 429.901 70.7582 430.905 72.5782 432.913C74.4296 434.89 75.3553 437.62 75.3553 441.103V456.448H67.3535V442.186C67.3535 440.428 66.8985 439.063 65.9885 438.091C65.0785 437.118 63.8547 436.631 62.3171 436.631C60.7795 436.631 59.5557 437.118 58.6457 438.091C57.7357 439.063 57.2807 440.428 57.2807 442.186V456.448H49.2319V430.183H57.2807V433.666C58.0966 432.505 59.1948 431.595 60.5755 430.936C61.9562 430.246 63.5095 429.901 65.2354 429.901ZM92.904 456.824C90.3308 456.824 88.0088 456.275 85.9377 455.177C83.8981 454.078 82.282 452.509 81.0896 450.47C79.9286 448.43 79.348 446.045 79.348 443.315C79.348 440.617 79.9442 438.247 81.1367 436.208C82.3291 434.137 83.9608 432.552 86.0319 431.454C88.1029 430.356 90.425 429.806 92.9981 429.806C95.5712 429.806 97.8933 430.356 99.9643 431.454C102.035 432.552 103.667 434.137 104.86 436.208C106.052 438.247 106.648 440.617 106.648 443.315C106.648 446.014 106.036 448.399 104.812 450.47C103.62 452.509 101.973 454.078 99.8702 455.177C97.7991 456.275 95.4771 456.824 92.904 456.824ZM92.904 449.858C94.4415 449.858 95.7438 449.293 96.8107 448.163C97.909 447.034 98.4581 445.418 98.4581 443.315C98.4581 441.213 97.9247 439.597 96.8578 438.467C95.8222 437.337 94.5357 436.773 92.9981 436.773C91.4291 436.773 90.1269 437.337 89.0914 438.467C88.0558 439.565 87.5381 441.181 87.5381 443.315C87.5381 445.418 88.0401 447.034 89.0443 448.163C90.0798 449.293 91.3664 449.858 92.904 449.858ZM122.733 448.916L128.428 430.183H136.995L127.675 456.448H117.743L108.424 430.183H117.037L122.733 448.916ZM138.782 443.268C138.782 440.57 139.284 438.2 140.288 436.161C141.324 434.121 142.72 432.552 144.477 431.454C146.235 430.356 148.196 429.806 150.361 429.806C152.212 429.806 153.828 430.183 155.209 430.936C156.621 431.689 157.704 432.678 158.457 433.901V430.183H166.506V456.448H158.457V452.729C157.672 453.953 156.574 454.941 155.162 455.694C153.781 456.448 152.165 456.824 150.314 456.824C148.18 456.824 146.235 456.275 144.477 455.177C142.72 454.047 141.324 452.462 140.288 450.423C139.284 448.352 138.782 445.967 138.782 443.268ZM158.457 443.315C158.457 441.307 157.892 439.722 156.762 438.561C155.664 437.4 154.315 436.82 152.715 436.82C151.114 436.82 149.749 437.4 148.62 438.561C147.521 439.691 146.972 441.26 146.972 443.268C146.972 445.276 147.521 446.877 148.62 448.069C149.749 449.23 151.114 449.811 152.715 449.811C154.315 449.811 155.664 449.23 156.762 448.069C157.892 446.908 158.457 445.323 158.457 443.315ZM186.967 449.622V456.448H182.872C179.954 456.448 177.679 455.741 176.047 454.329C174.415 452.886 173.6 450.548 173.6 447.316V436.867H170.399V430.183H173.6V423.782H181.648V430.183H186.92V436.867H181.648V447.41C181.648 448.195 181.837 448.76 182.213 449.105C182.59 449.45 183.217 449.622 184.096 449.622H186.967ZM195.499 427.453C194.086 427.453 192.925 427.045 192.015 426.229C191.137 425.382 190.697 424.346 190.697 423.123C190.697 421.867 191.137 420.832 192.015 420.016C192.925 419.169 194.086 418.745 195.499 418.745C196.879 418.745 198.009 419.169 198.888 420.016C199.798 420.832 200.253 421.867 200.253 423.123C200.253 424.346 199.798 425.382 198.888 426.229C198.009 427.045 196.879 427.453 195.499 427.453ZM199.499 430.183V456.448H191.451V430.183H199.499ZM217.288 456.824C214.715 456.824 212.393 456.275 210.322 455.177C208.282 454.078 206.666 452.509 205.474 450.47C204.312 448.43 203.732 446.045 203.732 443.315C203.732 440.617 204.328 438.247 205.521 436.208C206.713 434.137 208.345 432.552 210.416 431.454C212.487 430.356 214.809 429.806 217.382 429.806C219.955 429.806 222.277 430.356 224.348 431.454C226.419 432.552 228.051 434.137 229.243 436.208C230.436 438.247 231.032 440.617 231.032 443.315C231.032 446.014 230.42 448.399 229.196 450.47C228.004 452.509 226.357 454.078 224.254 455.177C222.183 456.275 219.861 456.824 217.288 456.824ZM217.288 449.858C218.825 449.858 220.128 449.293 221.195 448.163C222.293 447.034 222.842 445.418 222.842 443.315C222.842 441.213 222.309 439.597 221.242 438.467C220.206 437.337 218.92 436.773 217.382 436.773C215.813 436.773 214.511 437.337 213.475 438.467C212.44 439.565 211.922 441.181 211.922 443.315C211.922 445.418 212.424 447.034 213.428 448.163C214.464 449.293 215.75 449.858 217.288 449.858ZM251.306 429.901C254.381 429.901 256.828 430.905 258.648 432.913C260.5 434.89 261.426 437.62 261.426 441.103V456.448H253.424V442.186C253.424 440.428 252.969 439.063 252.059 438.091C251.149 437.118 249.925 436.631 248.387 436.631C246.85 436.631 245.626 437.118 244.716 438.091C243.806 439.063 243.351 440.428 243.351 442.186V456.448H235.302V430.183H243.351V433.666C244.167 432.505 245.265 431.595 246.646 430.936C248.026 430.246 249.58 429.901 251.306 429.901ZM302.269 456.448L299.21 453.482C296.166 455.804 292.526 456.965 288.29 456.965C285.748 456.965 283.536 456.557 281.653 455.741C279.77 454.894 278.311 453.717 277.276 452.211C276.272 450.674 275.769 448.885 275.769 446.845C275.769 444.774 276.319 442.907 277.417 441.244C278.547 439.55 280.225 438.169 282.453 437.102C281.637 436.098 281.057 435.141 280.712 434.231C280.367 433.289 280.194 432.27 280.194 431.171C280.194 429.602 280.602 428.175 281.418 426.888C282.234 425.602 283.41 424.597 284.948 423.876C286.517 423.123 288.368 422.746 290.502 422.746C292.667 422.746 294.503 423.138 296.009 423.923C297.515 424.707 298.645 425.758 299.398 427.076C300.151 428.394 300.496 429.838 300.434 431.407H292.856C292.887 430.559 292.667 429.916 292.197 429.477C291.757 429.006 291.161 428.771 290.408 428.771C289.655 428.771 289.027 428.991 288.525 429.43C288.023 429.869 287.772 430.434 287.772 431.124C287.772 431.783 287.976 432.474 288.384 433.195C288.823 433.917 289.498 434.749 290.408 435.69L298.457 443.551C298.52 443.394 298.598 443.205 298.692 442.986C298.818 442.766 298.943 442.515 299.069 442.233L300.81 439.267H308.859L306.6 443.362C305.753 445.214 304.78 446.971 303.681 448.634L311.636 456.448H302.269ZM288.666 450.47C290.769 450.47 292.636 449.874 294.268 448.681L286.925 441.574C284.666 442.735 283.536 444.304 283.536 446.281C283.536 447.473 283.991 448.477 284.901 449.293C285.842 450.077 287.097 450.47 288.666 450.47ZM348.292 423.405V429.853H339.537V456.448H331.488V429.853H322.733V423.405H348.292ZM377.09 442.892C377.09 443.645 377.043 444.429 376.949 445.245H358.733C358.858 446.877 359.376 448.132 360.286 449.011C361.228 449.858 362.373 450.281 363.722 450.281C365.731 450.281 367.127 449.434 367.911 447.74H376.478C376.039 449.466 375.238 451.019 374.077 452.4C372.948 453.78 371.52 454.863 369.794 455.647C368.068 456.432 366.138 456.824 364.005 456.824C361.432 456.824 359.141 456.275 357.133 455.177C355.124 454.078 353.555 452.509 352.426 450.47C351.296 448.43 350.731 446.045 350.731 443.315C350.731 440.585 351.28 438.2 352.379 436.161C353.508 434.121 355.077 432.552 357.085 431.454C359.094 430.356 361.4 429.806 364.005 429.806C366.546 429.806 368.806 430.34 370.783 431.407C372.76 432.474 374.297 433.996 375.395 435.972C376.525 437.949 377.09 440.256 377.09 442.892ZM368.853 440.773C368.853 439.393 368.382 438.295 367.441 437.479C366.499 436.663 365.323 436.255 363.911 436.255C362.561 436.255 361.416 436.647 360.474 437.432C359.564 438.216 359 439.33 358.78 440.773H368.853ZM379.736 443.315C379.736 440.585 380.285 438.2 381.383 436.161C382.513 434.121 384.066 432.552 386.043 431.454C388.051 430.356 390.342 429.806 392.915 429.806C396.21 429.806 398.956 430.669 401.152 432.395C403.38 434.121 404.839 436.553 405.53 439.691H396.963C396.241 437.683 394.845 436.678 392.774 436.678C391.299 436.678 390.122 437.259 389.244 438.42C388.365 439.55 387.926 441.181 387.926 443.315C387.926 445.449 388.365 447.096 389.244 448.257C390.122 449.387 391.299 449.952 392.774 449.952C394.845 449.952 396.241 448.948 396.963 446.94H405.53C404.839 450.015 403.38 452.431 401.152 454.188C398.924 455.945 396.178 456.824 392.915 456.824C390.342 456.824 388.051 456.275 386.043 455.177C384.066 454.078 382.513 452.509 381.383 450.47C380.285 448.43 379.736 446.045 379.736 443.315ZM425.98 429.901C428.992 429.901 431.408 430.905 433.228 432.913C435.048 434.89 435.958 437.62 435.958 441.103V456.448H427.957V442.186C427.957 440.428 427.502 439.063 426.592 438.091C425.682 437.118 424.458 436.631 422.92 436.631C421.383 436.631 420.159 437.118 419.249 438.091C418.339 439.063 417.884 440.428 417.884 442.186V456.448H409.835V421.616H417.884V433.713C418.7 432.552 419.814 431.626 421.226 430.936C422.638 430.246 424.222 429.901 425.98 429.901ZM457.555 429.901C460.63 429.901 463.078 430.905 464.898 432.913C466.749 434.89 467.675 437.62 467.675 441.103V456.448H459.673V442.186C459.673 440.428 459.218 439.063 458.308 438.091C457.398 437.118 456.174 436.631 454.637 436.631C453.099 436.631 451.875 437.118 450.965 438.091C450.055 439.063 449.6 440.428 449.6 442.186V456.448H441.551V430.183H449.6V433.666C450.416 432.505 451.514 431.595 452.895 430.936C454.276 430.246 455.829 429.901 457.555 429.901ZM485.224 456.824C482.65 456.824 480.328 456.275 478.257 455.177C476.218 454.078 474.602 452.509 473.409 450.47C472.248 448.43 471.668 446.045 471.668 443.315C471.668 440.617 472.264 438.247 473.456 436.208C474.649 434.137 476.28 432.552 478.351 431.454C480.422 430.356 482.745 429.806 485.318 429.806C487.891 429.806 490.213 430.356 492.284 431.454C494.355 432.552 495.987 434.137 497.179 436.208C498.372 438.247 498.968 440.617 498.968 443.315C498.968 446.014 498.356 448.399 497.132 450.47C495.94 452.509 494.292 454.078 492.19 455.177C490.119 456.275 487.797 456.824 485.224 456.824ZM485.224 449.858C486.761 449.858 488.063 449.293 489.13 448.163C490.229 447.034 490.778 445.418 490.778 443.315C490.778 441.213 490.244 439.597 489.177 438.467C488.142 437.337 486.855 436.773 485.318 436.773C483.749 436.773 482.446 437.337 481.411 438.467C480.375 439.565 479.858 441.181 479.858 443.315C479.858 445.418 480.36 447.034 481.364 448.163C482.399 449.293 483.686 449.858 485.224 449.858ZM511.287 421.616V456.448H503.238V421.616H511.287ZM529.075 456.824C526.502 456.824 524.18 456.275 522.109 455.177C520.069 454.078 518.453 452.509 517.261 450.47C516.1 448.43 515.519 446.045 515.519 443.315C515.519 440.617 516.115 438.247 517.308 436.208C518.5 434.137 520.132 432.552 522.203 431.454C524.274 430.356 526.596 429.806 529.169 429.806C531.742 429.806 534.064 430.356 536.135 431.454C538.207 432.552 539.838 434.137 541.031 436.208C542.223 438.247 542.819 440.617 542.819 443.315C542.819 446.014 542.207 448.399 540.984 450.47C539.791 452.509 538.144 454.078 536.041 455.177C533.97 456.275 531.648 456.824 529.075 456.824ZM529.075 449.858C530.613 449.858 531.915 449.293 532.982 448.163C534.08 447.034 534.629 445.418 534.629 443.315C534.629 441.213 534.096 439.597 533.029 438.467C531.993 437.337 530.707 436.773 529.169 436.773C527.6 436.773 526.298 437.337 525.262 438.467C524.227 439.565 523.709 441.181 523.709 443.315C523.709 445.418 524.211 447.034 525.215 448.163C526.251 449.293 527.537 449.858 529.075 449.858ZM557.068 429.806C558.919 429.806 560.535 430.183 561.916 430.936C563.328 431.689 564.411 432.678 565.164 433.901V430.183H573.213V456.4C573.213 458.817 572.726 460.998 571.754 462.943C570.812 464.92 569.353 466.489 567.376 467.65C565.431 468.811 562.999 469.392 560.08 469.392C556.189 469.392 553.036 468.466 550.619 466.614C548.203 464.794 546.823 462.315 546.477 459.178H554.432C554.683 460.182 555.279 460.966 556.221 461.531C557.162 462.127 558.323 462.425 559.704 462.425C561.367 462.425 562.685 461.939 563.658 460.966C564.662 460.025 565.164 458.503 565.164 456.4V452.682C564.379 453.906 563.297 454.91 561.916 455.694C560.535 456.448 558.919 456.824 557.068 456.824C554.903 456.824 552.942 456.275 551.184 455.177C549.427 454.047 548.031 452.462 546.995 450.423C545.991 448.352 545.489 445.967 545.489 443.268C545.489 440.57 545.991 438.2 546.995 436.161C548.031 434.121 549.427 432.552 551.184 431.454C552.942 430.356 554.903 429.806 557.068 429.806ZM565.164 443.315C565.164 441.307 564.599 439.722 563.469 438.561C562.371 437.4 561.022 436.82 559.421 436.82C557.821 436.82 556.456 437.4 555.326 438.561C554.228 439.691 553.679 441.26 553.679 443.268C553.679 445.276 554.228 446.877 555.326 448.069C556.456 449.23 557.821 449.811 559.421 449.811C561.022 449.811 562.371 449.23 563.469 448.069C564.599 446.908 565.164 445.323 565.164 443.315ZM605.865 430.183L589.391 468.921H580.73L586.755 455.553L576.07 430.183H585.061L591.132 446.61L597.157 430.183H605.865ZM642.52 423.405V429.853H633.765V456.448H625.716V429.853H616.962V423.405H642.52ZM654.609 434.56C655.55 433.117 656.727 431.987 658.139 431.171C659.551 430.324 661.12 429.901 662.846 429.901V438.42H660.633C658.625 438.42 657.119 438.859 656.115 439.738C655.111 440.585 654.609 442.091 654.609 444.257V456.448H646.56V430.183H654.609V434.56ZM665.092 443.268C665.092 440.57 665.594 438.2 666.599 436.161C667.634 434.121 669.031 432.552 670.788 431.454C672.545 430.356 674.506 429.806 676.671 429.806C678.523 429.806 680.139 430.183 681.52 430.936C682.932 431.689 684.014 432.678 684.767 433.901V430.183H692.816V456.448H684.767V452.729C683.983 453.953 682.885 454.941 681.472 455.694C680.092 456.448 678.476 456.824 676.624 456.824C674.491 456.824 672.545 456.275 670.788 455.177C669.031 454.047 667.634 452.462 666.599 450.423C665.594 448.352 665.092 445.967 665.092 443.268ZM684.767 443.315C684.767 441.307 684.202 439.722 683.073 438.561C681.975 437.4 680.625 436.82 679.025 436.82C677.425 436.82 676.06 437.4 674.93 438.561C673.832 439.691 673.282 441.26 673.282 443.268C673.282 445.276 673.832 446.877 674.93 448.069C676.06 449.23 677.425 449.811 679.025 449.811C680.625 449.811 681.975 449.23 683.073 448.069C684.202 446.908 684.767 445.323 684.767 443.315ZM714.643 429.901C717.718 429.901 720.165 430.905 721.985 432.913C723.837 434.89 724.762 437.62 724.762 441.103V456.448H716.761V442.186C716.761 440.428 716.306 439.063 715.396 438.091C714.486 437.118 713.262 436.631 711.724 436.631C710.187 436.631 708.963 437.118 708.053 438.091C707.143 439.063 706.688 440.428 706.688 442.186V456.448H698.639V430.183H706.688V433.666C707.504 432.505 708.602 431.595 709.983 430.936C711.363 430.246 712.917 429.901 714.643 429.901ZM741.04 456.824C738.75 456.824 736.71 456.432 734.921 455.647C733.133 454.863 731.721 453.796 730.685 452.447C729.65 451.066 729.069 449.528 728.944 447.834H736.898C736.992 448.744 737.416 449.481 738.169 450.046C738.922 450.611 739.848 450.893 740.946 450.893C741.95 450.893 742.719 450.705 743.253 450.329C743.817 449.921 744.1 449.403 744.1 448.775C744.1 448.022 743.708 447.473 742.923 447.128C742.139 446.751 740.868 446.343 739.111 445.904C737.228 445.465 735.659 445.01 734.404 444.539C733.148 444.037 732.066 443.268 731.156 442.233C730.246 441.166 729.791 439.738 729.791 437.949C729.791 436.443 730.199 435.078 731.015 433.854C731.862 432.599 733.086 431.611 734.686 430.889C736.318 430.167 738.248 429.806 740.476 429.806C743.77 429.806 746.359 430.622 748.242 432.254C750.156 433.886 751.254 436.051 751.537 438.75H744.1C743.974 437.84 743.566 437.118 742.876 436.584C742.217 436.051 741.338 435.784 740.24 435.784C739.299 435.784 738.577 435.972 738.075 436.349C737.573 436.694 737.322 437.181 737.322 437.808C737.322 438.561 737.714 439.126 738.499 439.503C739.314 439.879 740.57 440.256 742.264 440.632C744.21 441.134 745.794 441.636 747.018 442.138C748.242 442.609 749.309 443.394 750.219 444.492C751.16 445.559 751.647 447.002 751.678 448.822C751.678 450.36 751.239 451.741 750.36 452.964C749.513 454.157 748.273 455.098 746.642 455.789C745.041 456.479 743.174 456.824 741.04 456.824ZM769.782 436.867H765.451V456.448H757.402V436.867H754.484V430.183H757.402V429.43C757.402 426.198 758.328 423.75 760.18 422.087C762.031 420.393 764.745 419.545 768.322 419.545C768.919 419.545 769.358 419.561 769.64 419.592V426.417C768.103 426.323 767.02 426.543 766.393 427.076C765.765 427.61 765.451 428.567 765.451 429.948V430.183H769.782V436.867ZM798.322 442.892C798.322 443.645 798.275 444.429 798.181 445.245H779.965C780.091 446.877 780.608 448.132 781.518 449.011C782.46 449.858 783.605 450.281 784.954 450.281C786.963 450.281 788.359 449.434 789.144 447.74H797.71C797.271 449.466 796.471 451.019 795.31 452.4C794.18 453.78 792.752 454.863 791.026 455.647C789.3 456.432 787.371 456.824 785.237 456.824C782.664 456.824 780.373 456.275 778.365 455.177C776.356 454.078 774.787 452.509 773.658 450.47C772.528 448.43 771.963 446.045 771.963 443.315C771.963 440.585 772.512 438.2 773.611 436.161C774.74 434.121 776.309 432.552 778.318 431.454C780.326 430.356 782.632 429.806 785.237 429.806C787.779 429.806 790.038 430.34 792.015 431.407C793.992 432.474 795.529 433.996 796.628 435.972C797.757 437.949 798.322 440.256 798.322 442.892ZM790.085 440.773C790.085 439.393 789.614 438.295 788.673 437.479C787.731 436.663 786.555 436.255 785.143 436.255C783.793 436.255 782.648 436.647 781.707 437.432C780.797 438.216 780.232 439.33 780.012 440.773H790.085ZM810.617 434.56C811.558 433.117 812.735 431.987 814.147 431.171C815.559 430.324 817.128 429.901 818.854 429.901V438.42H816.642C814.634 438.42 813.127 438.859 812.123 439.738C811.119 440.585 810.617 442.091 810.617 444.257V456.448H802.568V430.183H810.617V434.56ZM848.303 456.777C845.196 456.777 842.341 456.055 839.736 454.612C837.163 453.168 835.108 451.16 833.57 448.587C832.064 445.982 831.311 443.064 831.311 439.832C831.311 436.6 832.064 433.697 833.57 431.124C835.108 428.551 837.163 426.543 839.736 425.099C842.341 423.656 845.196 422.934 848.303 422.934C851.409 422.934 854.249 423.656 856.822 425.099C859.427 426.543 861.467 428.551 862.941 431.124C864.448 433.697 865.201 436.6 865.201 439.832C865.201 443.064 864.448 445.982 862.941 448.587C861.435 451.16 859.396 453.168 856.822 454.612C854.249 456.055 851.409 456.777 848.303 456.777ZM848.303 449.434C850.939 449.434 853.041 448.556 854.61 446.798C856.21 445.041 857.011 442.719 857.011 439.832C857.011 436.914 856.21 434.592 854.61 432.866C853.041 431.109 850.939 430.23 848.303 430.23C845.636 430.23 843.502 431.093 841.901 432.819C840.333 434.545 839.548 436.882 839.548 439.832C839.548 442.75 840.333 445.088 841.901 446.845C843.502 448.571 845.636 449.434 848.303 449.434ZM882.858 436.867H878.528V456.448H870.479V436.867H867.56V430.183H870.479V429.43C870.479 426.198 871.404 423.75 873.256 422.087C875.107 420.393 877.822 419.545 881.399 419.545C881.995 419.545 882.434 419.561 882.717 419.592V426.417C881.179 426.323 880.097 426.543 879.469 427.076C878.841 427.61 878.528 428.567 878.528 429.948V430.183H882.858V436.867ZM899.819 436.867H895.489V456.448H887.44V436.867H884.522V430.183H887.44V429.43C887.44 426.198 888.366 423.75 890.217 422.087C892.069 420.393 894.783 419.545 898.36 419.545C898.956 419.545 899.396 419.561 899.678 419.592V426.417C898.141 426.323 897.058 426.543 896.43 427.076C895.803 427.61 895.489 428.567 895.489 429.948V430.183H899.819V436.867ZM907.649 427.453C906.237 427.453 905.076 427.045 904.166 426.229C903.288 425.382 902.848 424.346 902.848 423.123C902.848 421.867 903.288 420.832 904.166 420.016C905.076 419.169 906.237 418.745 907.649 418.745C909.03 418.745 910.16 419.169 911.038 420.016C911.948 420.832 912.403 421.867 912.403 423.123C912.403 424.346 911.948 425.382 911.038 426.229C910.16 427.045 909.03 427.453 907.649 427.453ZM911.65 430.183V456.448H903.601V430.183H911.65ZM915.883 443.315C915.883 440.585 916.432 438.2 917.53 436.161C918.66 434.121 920.213 432.552 922.19 431.454C924.198 430.356 926.489 429.806 929.062 429.806C932.357 429.806 935.103 430.669 937.299 432.395C939.527 434.121 940.986 436.553 941.677 439.691H933.11C932.388 437.683 930.992 436.678 928.921 436.678C927.446 436.678 926.269 437.259 925.391 438.42C924.512 439.55 924.073 441.181 924.073 443.315C924.073 445.449 924.512 447.096 925.391 448.257C926.269 449.387 927.446 449.952 928.921 449.952C930.992 449.952 932.388 448.948 933.11 446.94H941.677C940.986 450.015 939.527 452.431 937.299 454.188C935.071 455.945 932.326 456.824 929.062 456.824C926.489 456.824 924.198 456.275 922.19 455.177C920.213 454.078 918.66 452.509 917.53 450.47C916.432 448.43 915.883 446.045 915.883 443.315ZM970.74 442.892C970.74 443.645 970.693 444.429 970.599 445.245H952.383C952.509 446.877 953.027 448.132 953.937 449.011C954.878 449.858 956.023 450.281 957.373 450.281C959.381 450.281 960.777 449.434 961.562 447.74H970.129C969.689 449.466 968.889 451.019 967.728 452.4C966.598 453.78 965.171 454.863 963.445 455.647C961.719 456.432 959.789 456.824 957.655 456.824C955.082 456.824 952.791 456.275 950.783 455.177C948.775 454.078 947.206 452.509 946.076 450.47C944.947 448.43 944.382 446.045 944.382 443.315C944.382 440.585 944.931 438.2 946.029 436.161C947.159 434.121 948.728 432.552 950.736 431.454C952.744 430.356 955.051 429.806 957.655 429.806C960.197 429.806 962.456 430.34 964.433 431.407C966.41 432.474 967.948 433.996 969.046 435.972C970.176 437.949 970.74 440.256 970.74 442.892ZM962.503 440.773C962.503 439.393 962.033 438.295 961.091 437.479C960.15 436.663 958.973 436.255 957.561 436.255C956.212 436.255 955.066 436.647 954.125 437.432C953.215 438.216 952.65 439.33 952.431 440.773H962.503Z" fill="white"/>
<circle cx="105.552" cy="45.8846" r="45.0785" fill="#FFFEF9"/>
<circle cx="838.424" cy="245.067" r="138.992" fill="#FFFEF9"/>
<circle cx="624.301" cy="45.8846" r="45.0785" fill="#FFFEF9"/>
<circle cx="410.092" cy="49.5547" r="45.0785" fill="#FFFEF9"/>
<circle cx="240.961" cy="45.8846" r="45.0785" fill="#FFFEF9"/>
<path d="M208.944 117.345H11.7253L208.944 384.059V117.345Z" fill="#FFFEF9"/>
<path d="M240.961 384.059H438.179L240.961 117.344L240.961 384.059Z" fill="#FFFEF9"/>
<path d="M530.301 117.345L727.519 117.345L530.301 384.059V117.345Z" fill="#FFFEF9"/>
<path d="M490.77 117.345H293.552L490.77 384.059V117.345Z" fill="#FFFEF9"/>
</svg>
