<svg width="812" height="389" viewBox="0 0 812 389" fill="none" xmlns="http://www.w3.org/2000/svg">
<path d="M9.11436 350.54V378H2.42528V350.54H9.11436ZM27.2618 355.938C29.8175 355.938 31.8516 356.772 33.3641 358.441C34.9027 360.084 35.672 362.353 35.672 365.248V378H29.0221V366.147C29.0221 364.687 28.6439 363.553 27.8877 362.744C27.1314 361.936 26.1143 361.532 24.8365 361.532C23.5587 361.532 22.5416 361.936 21.7853 362.744C21.0291 363.553 20.6509 364.687 20.6509 366.147V378H13.9619V356.172H20.6509V359.067C21.329 358.102 22.2417 357.346 23.3892 356.798C24.5366 356.225 25.8275 355.938 27.2618 355.938ZM53.6202 355.938C56.1759 355.938 58.21 356.772 59.7225 358.441C61.2611 360.084 62.0304 362.353 62.0304 365.248V378H55.3805V366.147C55.3805 364.687 55.0023 363.553 54.2461 362.744C53.4898 361.936 52.4728 361.532 51.1949 361.532C49.9171 361.532 48.9 361.936 48.1438 362.744C47.3875 363.553 47.0094 364.687 47.0094 366.147V378H40.3203V356.172H47.0094V359.067C47.6874 358.102 48.6001 357.346 49.7476 356.798C50.895 356.225 52.1859 355.938 53.6202 355.938ZM76.6145 378.313C74.4761 378.313 72.5463 377.857 70.8251 376.944C69.13 376.031 67.787 374.727 66.796 373.032C65.8311 371.337 65.3487 369.355 65.3487 367.086C65.3487 364.844 65.8442 362.875 66.8352 361.18C67.8261 359.458 69.1822 358.141 70.9034 357.229C72.6245 356.316 74.5543 355.86 76.6927 355.86C78.8312 355.86 80.761 356.316 82.4821 357.229C84.2033 358.141 85.5594 359.458 86.5503 361.18C87.5413 362.875 88.0368 364.844 88.0368 367.086C88.0368 369.329 87.5283 371.311 86.5112 373.032C85.5202 374.727 84.1511 376.031 82.4039 376.944C80.6827 377.857 78.7529 378.313 76.6145 378.313ZM76.6145 372.524C77.8923 372.524 78.9746 372.054 79.8613 371.115C80.774 370.177 81.2304 368.833 81.2304 367.086C81.2304 365.339 80.787 363.996 79.9004 363.057C79.0398 362.118 77.9706 361.649 76.6927 361.649C75.3888 361.649 74.3066 362.118 73.446 363.057C72.5854 363.97 72.1551 365.313 72.1551 367.086C72.1551 368.833 72.5724 370.177 73.4069 371.115C74.2675 372.054 75.3367 372.524 76.6145 372.524ZM101.404 371.741L106.137 356.172H113.257L105.511 378H97.2575L89.5123 356.172H96.6707L101.404 371.741ZM114.742 367.047C114.742 364.804 115.159 362.835 115.994 361.14C116.854 359.445 118.015 358.141 119.475 357.229C120.936 356.316 122.566 355.86 124.365 355.86C125.904 355.86 127.247 356.172 128.394 356.798C129.568 357.424 130.467 358.246 131.093 359.263V356.172H137.782V378H131.093V374.91C130.441 375.927 129.528 376.748 128.355 377.374C127.207 378 125.864 378.313 124.326 378.313C122.553 378.313 120.936 377.857 119.475 376.944C118.015 376.005 116.854 374.688 115.994 372.993C115.159 371.272 114.742 369.29 114.742 367.047ZM131.093 367.086C131.093 365.417 130.624 364.1 129.685 363.135C128.772 362.17 127.651 361.688 126.321 361.688C124.991 361.688 123.856 362.17 122.918 363.135C122.005 364.074 121.549 365.378 121.549 367.047C121.549 368.716 122.005 370.046 122.918 371.037C123.856 372.002 124.991 372.484 126.321 372.484C127.651 372.484 128.772 372.002 129.685 371.037C130.624 370.072 131.093 368.755 131.093 367.086ZM154.787 372.328V378H151.384C148.959 378 147.068 377.413 145.712 376.24C144.356 375.04 143.678 373.097 143.678 370.411V361.727H141.018V356.172H143.678V350.853H150.367V356.172H154.748V361.727H150.367V370.489C150.367 371.141 150.523 371.611 150.836 371.898C151.149 372.185 151.671 372.328 152.401 372.328H154.787ZM161.877 353.904C160.704 353.904 159.739 353.565 158.982 352.887C158.252 352.183 157.887 351.322 157.887 350.305C157.887 349.262 158.252 348.401 158.982 347.723C159.739 347.019 160.704 346.667 161.877 346.667C163.024 346.667 163.963 347.019 164.693 347.723C165.45 348.401 165.828 349.262 165.828 350.305C165.828 351.322 165.45 352.183 164.693 352.887C163.963 353.565 163.024 353.904 161.877 353.904ZM165.202 356.172V378H158.513V356.172H165.202ZM179.985 378.313C177.847 378.313 175.917 377.857 174.196 376.944C172.501 376.031 171.158 374.727 170.167 373.032C169.202 371.337 168.72 369.355 168.72 367.086C168.72 364.844 169.215 362.875 170.206 361.18C171.197 359.458 172.553 358.141 174.274 357.229C175.995 356.316 177.925 355.86 180.064 355.86C182.202 355.86 184.132 356.316 185.853 357.229C187.574 358.141 188.93 359.458 189.921 361.18C190.912 362.875 191.408 364.844 191.408 367.086C191.408 369.329 190.899 371.311 189.882 373.032C188.891 374.727 187.522 376.031 185.775 376.944C184.054 377.857 182.124 378.313 179.985 378.313ZM179.985 372.524C181.263 372.524 182.345 372.054 183.232 371.115C184.145 370.177 184.601 368.833 184.601 367.086C184.601 365.339 184.158 363.996 183.271 363.057C182.411 362.118 181.341 361.649 180.064 361.649C178.76 361.649 177.677 362.118 176.817 363.057C175.956 363.97 175.526 365.313 175.526 367.086C175.526 368.833 175.943 370.177 176.778 371.115C177.638 372.054 178.708 372.524 179.985 372.524ZM208.256 355.938C210.812 355.938 212.846 356.772 214.359 358.441C215.897 360.084 216.666 362.353 216.666 365.248V378H210.017V366.147C210.017 364.687 209.638 363.553 208.882 362.744C208.126 361.936 207.109 361.532 205.831 361.532C204.553 361.532 203.536 361.936 202.78 362.744C202.024 363.553 201.645 364.687 201.645 366.147V378H194.956V356.172H201.645V359.067C202.323 358.102 203.236 357.346 204.384 356.798C205.531 356.225 206.822 355.938 208.256 355.938ZM250.61 378L248.068 375.536C245.538 377.465 242.513 378.43 238.992 378.43C236.88 378.43 235.042 378.091 233.477 377.413C231.912 376.709 230.7 375.731 229.839 374.479C229.004 373.202 228.587 371.715 228.587 370.02C228.587 368.299 229.044 366.747 229.956 365.365C230.895 363.957 232.29 362.809 234.142 361.923C233.464 361.088 232.981 360.293 232.695 359.537C232.408 358.754 232.264 357.907 232.264 356.994C232.264 355.69 232.603 354.503 233.281 353.434C233.959 352.365 234.937 351.531 236.215 350.931C237.519 350.305 239.058 349.992 240.831 349.992C242.63 349.992 244.156 350.318 245.408 350.97C246.659 351.622 247.598 352.495 248.224 353.591C248.85 354.686 249.137 355.886 249.085 357.19H242.787C242.813 356.485 242.63 355.951 242.239 355.586C241.874 355.195 241.379 354.999 240.753 354.999C240.127 354.999 239.605 355.182 239.188 355.547C238.771 355.912 238.562 356.381 238.562 356.955C238.562 357.502 238.732 358.076 239.071 358.676C239.436 359.276 239.996 359.967 240.753 360.749L247.442 367.282C247.494 367.151 247.559 366.995 247.637 366.812C247.742 366.63 247.846 366.421 247.95 366.187L249.398 363.722H256.087L254.209 367.125C253.505 368.664 252.697 370.124 251.784 371.507L258.395 378H250.61ZM239.305 373.032C241.053 373.032 242.604 372.537 243.96 371.546L237.858 365.639C235.98 366.604 235.042 367.908 235.042 369.551C235.042 370.542 235.42 371.376 236.176 372.054C236.958 372.706 238.001 373.032 239.305 373.032ZM288.858 350.54V355.899H281.582V378H274.893V355.899H267.617V350.54H288.858ZM312.791 366.734C312.791 367.36 312.752 368.012 312.673 368.69H297.535C297.639 370.046 298.07 371.089 298.826 371.819C299.608 372.524 300.56 372.876 301.681 372.876C303.35 372.876 304.511 372.172 305.163 370.763H312.282C311.917 372.198 311.252 373.488 310.287 374.636C309.348 375.783 308.162 376.683 306.728 377.335C305.293 377.987 303.689 378.313 301.916 378.313C299.778 378.313 297.874 377.857 296.205 376.944C294.536 376.031 293.232 374.727 292.293 373.032C291.354 371.337 290.885 369.355 290.885 367.086C290.885 364.817 291.341 362.835 292.254 361.14C293.193 359.445 294.497 358.141 296.166 357.229C297.835 356.316 299.752 355.86 301.916 355.86C304.029 355.86 305.906 356.303 307.549 357.19C309.192 358.076 310.47 359.341 311.383 360.984C312.321 362.627 312.791 364.544 312.791 366.734ZM305.945 364.974C305.945 363.826 305.554 362.914 304.772 362.236C303.989 361.558 303.011 361.219 301.838 361.219C300.717 361.219 299.765 361.545 298.982 362.197C298.226 362.849 297.757 363.774 297.574 364.974H305.945ZM314.99 367.086C314.99 364.817 315.446 362.835 316.359 361.14C317.298 359.445 318.588 358.141 320.231 357.229C321.9 356.316 323.804 355.86 325.943 355.86C328.681 355.86 330.963 356.577 332.788 358.011C334.64 359.445 335.852 361.466 336.426 364.074H329.307C328.707 362.405 327.546 361.571 325.825 361.571C324.599 361.571 323.622 362.053 322.891 363.018C322.161 363.957 321.796 365.313 321.796 367.086C321.796 368.86 322.161 370.229 322.891 371.194C323.622 372.132 324.599 372.602 325.825 372.602C327.546 372.602 328.707 371.767 329.307 370.098H336.426C335.852 372.654 334.64 374.662 332.788 376.122C330.937 377.583 328.655 378.313 325.943 378.313C323.804 378.313 321.9 377.857 320.231 376.944C318.588 376.031 317.298 374.727 316.359 373.032C315.446 371.337 314.99 369.355 314.99 367.086ZM353.421 355.938C355.925 355.938 357.933 356.772 359.445 358.441C360.958 360.084 361.714 362.353 361.714 365.248V378H355.064V366.147C355.064 364.687 354.686 363.553 353.93 362.744C353.174 361.936 352.156 361.532 350.879 361.532C349.601 361.532 348.584 361.936 347.827 362.744C347.071 363.553 346.693 364.687 346.693 366.147V378H340.004V349.053H346.693V359.106C347.371 358.141 348.297 357.372 349.47 356.798C350.644 356.225 351.961 355.938 353.421 355.938ZM379.662 355.938C382.218 355.938 384.252 356.772 385.765 358.441C387.303 360.084 388.073 362.353 388.073 365.248V378H381.423V366.147C381.423 364.687 381.044 363.553 380.288 362.744C379.532 361.936 378.515 361.532 377.237 361.532C375.959 361.532 374.942 361.936 374.186 362.744C373.43 363.553 373.051 364.687 373.051 366.147V378H366.362V356.172H373.051V359.067C373.73 358.102 374.642 357.346 375.79 356.798C376.937 356.225 378.228 355.938 379.662 355.938ZM402.657 378.313C400.518 378.313 398.588 377.857 396.867 376.944C395.172 376.031 393.829 374.727 392.838 373.032C391.873 371.337 391.391 369.355 391.391 367.086C391.391 364.844 391.886 362.875 392.877 361.18C393.868 359.458 395.224 358.141 396.946 357.229C398.667 356.316 400.596 355.86 402.735 355.86C404.873 355.86 406.803 356.316 408.524 357.229C410.245 358.141 411.602 359.458 412.592 361.18C413.583 362.875 414.079 364.844 414.079 367.086C414.079 369.329 413.57 371.311 412.553 373.032C411.562 374.727 410.193 376.031 408.446 376.944C406.725 377.857 404.795 378.313 402.657 378.313ZM402.657 372.524C403.935 372.524 405.017 372.054 405.903 371.115C406.816 370.177 407.273 368.833 407.273 367.086C407.273 365.339 406.829 363.996 405.943 363.057C405.082 362.118 404.013 361.649 402.735 361.649C401.431 361.649 400.349 362.118 399.488 363.057C398.628 363.97 398.197 365.313 398.197 367.086C398.197 368.833 398.615 370.177 399.449 371.115C400.31 372.054 401.379 372.524 402.657 372.524ZM424.317 349.053V378H417.628V349.053H424.317ZM439.1 378.313C436.962 378.313 435.032 377.857 433.311 376.944C431.616 376.031 430.273 374.727 429.282 373.032C428.317 371.337 427.834 369.355 427.834 367.086C427.834 364.844 428.33 362.875 429.321 361.18C430.312 359.458 431.668 358.141 433.389 357.229C435.11 356.316 437.04 355.86 439.178 355.86C441.317 355.86 443.246 356.316 444.968 357.229C446.689 358.141 448.045 359.458 449.036 361.18C450.027 362.875 450.522 364.844 450.522 367.086C450.522 369.329 450.014 371.311 448.997 373.032C448.006 374.727 446.637 376.031 444.889 376.944C443.168 377.857 441.238 378.313 439.1 378.313ZM439.1 372.524C440.378 372.524 441.46 372.054 442.347 371.115C443.26 370.177 443.716 368.833 443.716 367.086C443.716 365.339 443.273 363.996 442.386 363.057C441.525 362.118 440.456 361.649 439.178 361.649C437.874 361.649 436.792 362.118 435.932 363.057C435.071 363.97 434.641 365.313 434.641 367.086C434.641 368.833 435.058 370.177 435.892 371.115C436.753 372.054 437.822 372.524 439.1 372.524ZM462.364 355.86C463.903 355.86 465.246 356.172 466.393 356.798C467.567 357.424 468.466 358.246 469.092 359.263V356.172H475.781V377.961C475.781 379.969 475.377 381.781 474.569 383.398C473.786 385.041 472.574 386.345 470.931 387.31C469.314 388.275 467.293 388.757 464.867 388.757C461.634 388.757 459.013 387.988 457.005 386.449C454.997 384.937 453.849 382.877 453.562 380.269H460.173C460.382 381.103 460.877 381.755 461.66 382.225C462.442 382.72 463.407 382.968 464.554 382.968C465.937 382.968 467.032 382.564 467.84 381.755C468.675 380.973 469.092 379.708 469.092 377.961V374.871C468.44 375.888 467.54 376.722 466.393 377.374C465.246 378 463.903 378.313 462.364 378.313C460.564 378.313 458.935 377.857 457.474 376.944C456.014 376.005 454.853 374.688 453.993 372.993C453.158 371.272 452.741 369.29 452.741 367.047C452.741 364.804 453.158 362.835 453.993 361.14C454.853 359.445 456.014 358.141 457.474 357.229C458.935 356.316 460.564 355.86 462.364 355.86ZM469.092 367.086C469.092 365.417 468.623 364.1 467.684 363.135C466.771 362.17 465.65 361.688 464.32 361.688C462.99 361.688 461.855 362.17 460.917 363.135C460.004 364.074 459.547 365.378 459.547 367.047C459.547 368.716 460.004 370.046 460.917 371.037C461.855 372.002 462.99 372.484 464.32 372.484C465.65 372.484 466.771 372.002 467.684 371.037C468.623 370.072 469.092 368.755 469.092 367.086ZM502.917 356.172L489.226 388.366H482.029L487.036 377.257L478.156 356.172H485.627L490.674 369.824L495.681 356.172H502.917ZM533.38 350.54V355.899H526.104V378H519.415V355.899H512.139V350.54H533.38ZM543.426 359.81C544.209 358.611 545.186 357.672 546.36 356.994C547.534 356.29 548.837 355.938 550.272 355.938V363.018H548.433C546.764 363.018 545.512 363.383 544.678 364.113C543.843 364.817 543.426 366.069 543.426 367.869V378H536.737V356.172H543.426V359.81ZM552.139 367.047C552.139 364.804 552.556 362.835 553.391 361.14C554.251 359.445 555.412 358.141 556.872 357.229C558.333 356.316 559.962 355.86 561.762 355.86C563.3 355.86 564.644 356.172 565.791 356.798C566.964 357.424 567.864 358.246 568.49 359.263V356.172H575.179V378H568.49V374.91C567.838 375.927 566.925 376.748 565.752 377.374C564.604 378 563.261 378.313 561.723 378.313C559.949 378.313 558.333 377.857 556.872 376.944C555.412 376.005 554.251 374.688 553.391 372.993C552.556 371.272 552.139 369.29 552.139 367.047ZM568.49 367.086C568.49 365.417 568.021 364.1 567.082 363.135C566.169 362.17 565.048 361.688 563.718 361.688C562.388 361.688 561.253 362.17 560.315 363.135C559.402 364.074 558.945 365.378 558.945 367.047C558.945 368.716 559.402 370.046 560.315 371.037C561.253 372.002 562.388 372.484 563.718 372.484C565.048 372.484 566.169 372.002 567.082 371.037C568.021 370.072 568.49 368.755 568.49 367.086ZM593.318 355.938C595.874 355.938 597.908 356.772 599.421 358.441C600.959 360.084 601.729 362.353 601.729 365.248V378H595.079V366.147C595.079 364.687 594.7 363.553 593.944 362.744C593.188 361.936 592.171 361.532 590.893 361.532C589.615 361.532 588.598 361.936 587.842 362.744C587.086 363.553 586.707 364.687 586.707 366.147V378H580.018V356.172H586.707V359.067C587.385 358.102 588.298 357.346 589.446 356.798C590.593 356.225 591.884 355.938 593.318 355.938ZM615.256 378.313C613.353 378.313 611.658 377.987 610.171 377.335C608.685 376.683 607.511 375.796 606.651 374.675C605.79 373.528 605.308 372.25 605.203 370.842H611.814C611.892 371.598 612.244 372.211 612.87 372.68C613.496 373.149 614.265 373.384 615.178 373.384C616.013 373.384 616.652 373.228 617.095 372.915C617.564 372.576 617.799 372.145 617.799 371.624C617.799 370.998 617.473 370.542 616.821 370.255C616.169 369.942 615.113 369.603 613.653 369.238C612.088 368.873 610.784 368.494 609.741 368.103C608.698 367.686 607.798 367.047 607.042 366.187C606.286 365.3 605.907 364.113 605.907 362.627C605.907 361.375 606.246 360.241 606.924 359.224C607.629 358.181 608.646 357.359 609.976 356.759C611.332 356.159 612.936 355.86 614.787 355.86C617.525 355.86 619.677 356.538 621.241 357.894C622.832 359.25 623.745 361.049 623.98 363.292H617.799C617.695 362.536 617.356 361.936 616.782 361.492C616.234 361.049 615.504 360.827 614.591 360.827C613.809 360.827 613.209 360.984 612.792 361.297C612.375 361.584 612.166 361.988 612.166 362.51C612.166 363.135 612.492 363.605 613.144 363.918C613.822 364.231 614.865 364.544 616.274 364.857C617.89 365.274 619.207 365.691 620.224 366.108C621.241 366.499 622.128 367.151 622.884 368.064C623.667 368.951 624.071 370.15 624.097 371.663C624.097 372.941 623.732 374.088 623.002 375.105C622.298 376.096 621.268 376.879 619.911 377.452C618.581 378.026 617.03 378.313 615.256 378.313ZM639.142 361.727H635.543V378H628.854V361.727H626.429V356.172H628.854V355.547C628.854 352.861 629.624 350.826 631.162 349.444C632.701 348.036 634.957 347.332 637.93 347.332C638.425 347.332 638.79 347.345 639.025 347.371V353.043C637.747 352.965 636.847 353.147 636.326 353.591C635.804 354.034 635.543 354.829 635.543 355.977V356.172H639.142V361.727ZM662.861 366.734C662.861 367.36 662.822 368.012 662.744 368.69H647.605C647.71 370.046 648.14 371.089 648.896 371.819C649.679 372.524 650.63 372.876 651.752 372.876C653.421 372.876 654.581 372.172 655.233 370.763H662.353C661.988 372.198 661.323 373.488 660.358 374.636C659.419 375.783 658.232 376.683 656.798 377.335C655.364 377.987 653.76 378.313 651.987 378.313C649.848 378.313 647.944 377.857 646.275 376.944C644.606 376.031 643.302 374.727 642.364 373.032C641.425 371.337 640.955 369.355 640.955 367.086C640.955 364.817 641.412 362.835 642.325 361.14C643.263 359.445 644.567 358.141 646.236 357.229C647.905 356.316 649.822 355.86 651.987 355.86C654.099 355.86 655.976 356.303 657.619 357.19C659.262 358.076 660.54 359.341 661.453 360.984C662.392 362.627 662.861 364.544 662.861 366.734ZM656.016 364.974C656.016 363.826 655.624 362.914 654.842 362.236C654.06 361.558 653.082 361.219 651.908 361.219C650.787 361.219 649.835 361.545 649.053 362.197C648.296 362.849 647.827 363.774 647.644 364.974H656.016ZM673.079 359.81C673.861 358.611 674.839 357.672 676.013 356.994C677.186 356.29 678.49 355.938 679.925 355.938V363.018H678.086C676.417 363.018 675.165 363.383 674.331 364.113C673.496 364.817 673.079 366.069 673.079 367.869V378H666.39V356.172H673.079V359.81ZM704.398 378.274C701.817 378.274 699.443 377.674 697.279 376.474C695.141 375.275 693.432 373.606 692.155 371.467C690.903 369.303 690.277 366.878 690.277 364.192C690.277 361.505 690.903 359.093 692.155 356.955C693.432 354.816 695.141 353.147 697.279 351.948C699.443 350.748 701.817 350.148 704.398 350.148C706.98 350.148 709.34 350.748 711.479 351.948C713.643 353.147 715.338 354.816 716.564 356.955C717.816 359.093 718.441 361.505 718.441 364.192C718.441 366.878 717.816 369.303 716.564 371.467C715.312 373.606 713.617 375.275 711.479 376.474C709.34 377.674 706.98 378.274 704.398 378.274ZM704.398 372.172C706.589 372.172 708.336 371.441 709.64 369.981C710.97 368.521 711.635 366.591 711.635 364.192C711.635 361.766 710.97 359.836 709.64 358.402C708.336 356.942 706.589 356.212 704.398 356.212C702.182 356.212 700.408 356.929 699.078 358.363C697.774 359.797 697.123 361.74 697.123 364.192C697.123 366.617 697.774 368.56 699.078 370.02C700.408 371.454 702.182 372.172 704.398 372.172ZM733.116 361.727H729.517V378H722.828V361.727H720.403V356.172H722.828V355.547C722.828 352.861 723.597 350.826 725.136 349.444C726.674 348.036 728.93 347.332 731.903 347.332C732.399 347.332 732.764 347.345 732.998 347.371V353.043C731.721 352.965 730.821 353.147 730.299 353.591C729.778 354.034 729.517 354.829 729.517 355.977V356.172H733.116V361.727ZM747.212 361.727H743.613V378H736.924V361.727H734.499V356.172H736.924V355.547C736.924 352.861 737.693 350.826 739.232 349.444C740.77 348.036 743.026 347.332 745.999 347.332C746.495 347.332 746.86 347.345 747.094 347.371V353.043C745.817 352.965 744.917 353.147 744.395 353.591C743.874 354.034 743.613 354.829 743.613 355.977V356.172H747.212V361.727ZM753.719 353.904C752.545 353.904 751.581 353.565 750.824 352.887C750.094 352.183 749.729 351.322 749.729 350.305C749.729 349.262 750.094 348.401 750.824 347.723C751.581 347.019 752.545 346.667 753.719 346.667C754.866 346.667 755.805 347.019 756.535 347.723C757.292 348.401 757.67 349.262 757.67 350.305C757.67 351.322 757.292 352.183 756.535 352.887C755.805 353.565 754.866 353.904 753.719 353.904ZM757.044 356.172V378H750.355V356.172H757.044ZM760.561 367.086C760.561 364.817 761.018 362.835 761.931 361.14C762.869 359.445 764.16 358.141 765.803 357.229C767.472 356.316 769.376 355.86 771.514 355.86C774.253 355.86 776.534 356.577 778.36 358.011C780.211 359.445 781.424 361.466 781.998 364.074H774.878C774.279 362.405 773.118 361.571 771.397 361.571C770.171 361.571 769.193 362.053 768.463 363.018C767.733 363.957 767.368 365.313 767.368 367.086C767.368 368.86 767.733 370.229 768.463 371.194C769.193 372.132 770.171 372.602 771.397 372.602C773.118 372.602 774.279 371.767 774.878 370.098H781.998C781.424 372.654 780.211 374.662 778.36 376.122C776.508 377.583 774.226 378.313 771.514 378.313C769.376 378.313 767.472 377.857 765.803 376.944C764.16 376.031 762.869 374.727 761.931 373.032C761.018 371.337 760.561 369.355 760.561 367.086ZM806.152 366.734C806.152 367.36 806.112 368.012 806.034 368.69H790.896C791 370.046 791.43 371.089 792.187 371.819C792.969 372.524 793.921 372.876 795.042 372.876C796.711 372.876 797.872 372.172 798.524 370.763H805.643C805.278 372.198 804.613 373.488 803.648 374.636C802.709 375.783 801.523 376.683 800.088 377.335C798.654 377.987 797.05 378.313 795.277 378.313C793.138 378.313 791.235 377.857 789.566 376.944C787.897 376.031 786.593 374.727 785.654 373.032C784.715 371.337 784.246 369.355 784.246 367.086C784.246 364.817 784.702 362.835 785.615 361.14C786.554 359.445 787.858 358.141 789.527 357.229C791.196 356.316 793.112 355.86 795.277 355.86C797.389 355.86 799.267 356.303 800.91 357.19C802.553 358.076 803.831 359.341 804.743 360.984C805.682 362.627 806.152 364.544 806.152 366.734ZM799.306 364.974C799.306 363.826 798.915 362.914 798.132 362.236C797.35 361.558 796.372 361.219 795.199 361.219C794.077 361.219 793.125 361.545 792.343 362.197C791.587 362.849 791.117 363.774 790.935 364.974H799.306Z" fill="#173218"/>
<circle cx="87.1261" cy="37.463" r="37.463" fill="#173218"/>
<circle cx="696.188" cy="202.997" r="115.511" fill="#173218"/>
<circle cx="518.238" cy="37.463" r="37.463" fill="#173218"/>
<circle cx="340.217" cy="40.5131" r="37.463" fill="#173218"/>
<circle cx="199.659" cy="37.463" r="37.463" fill="#173218"/>
<path d="M173.051 96.8508H9.15002L173.051 318.507V96.8508Z" fill="#173218"/>
<path d="M199.659 318.507H363.56L199.659 96.8506L199.659 318.507Z" fill="#173218"/>
<path d="M440.119 96.8508L604.02 96.8508L440.119 318.507V96.8508Z" fill="#173218"/>
<path d="M407.267 96.8508H243.366L407.267 318.507V96.8508Z" fill="#173218"/>
</svg>
